<svg xmlns="http://www.w3.org/2000/svg" width="128" height="160" viewBox="0 0 128 160">
  <defs>
    <linearGradient id="paper" x1="0" y1="0" x2="1" y2="1">
      <stop stop-color="#303941"/>
      <stop offset=".46" stop-color="#242c33"/>
      <stop offset="1" stop-color="#151a20"/>
    </linearGradient>
    <linearGradient id="wood" x1="0" y1="0" x2="1" y2="0">
      <stop stop-color="#17110e"/>
      <stop offset=".48" stop-color="#2b1f19"/>
      <stop offset="1" stop-color="#3a2920"/>
    </linearGradient>
    <pattern id="paperGrain" width="24" height="24" patternUnits="userSpaceOnUse">
      <path d="M4 6h16M8 14h12M3 21h14" stroke="#90a0aa" stroke-opacity=".035" stroke-width="1"/>
      <path d="M12 2c3 4 3 7 0 10-3-3-3-6 0-10Z" fill="none" stroke="#d1b37b" stroke-opacity=".045"/>
    </pattern>
    <filter id="grain"><feTurbulence baseFrequency=".62" numOctaves="2" seed="21"/><feColorMatrix values="0 0 0 0 .15 0 0 0 0 .18 0 0 0 0 .2 0 0 0 .13 0"/></filter>
    <clipPath id="wall"><path d="M64 94 128 126 128 50 64 18Z"/></clipPath>
  </defs>
  <path d="M64 94 128 126 128 50 64 18Z" fill="url(#paper)" stroke="#090b0d" stroke-width="2.2"/>
  <g clip-path="url(#wall)">
    <rect x="62" y="15" width="68" height="116" fill="url(#paperGrain)"/>
    <rect x="60" y="14" width="72" height="120" filter="url(#grain)" opacity=".18"/>
  </g>
  <path d="M64 66 128 98v28L64 94Z" fill="url(#wood)" stroke="#0b0807" stroke-width="1.5"/>
  <path d="M64 63 128 95" stroke="#b58a4e" stroke-opacity=".82" stroke-width="3"/>
  <path d="M64 59 128 91" stroke="#090a0b" stroke-opacity=".7" stroke-width="1.4"/>
  <path d="M72 71v18M88 79v18M104 87v18M120 95v18" stroke="#806043" stroke-opacity=".44" stroke-width="1.3"/>
  <path d="M64 18 128 50" stroke="#c29b61" stroke-opacity=".72" stroke-width="3"/>
  <path d="M65 22 128 53" stroke="#070809" stroke-opacity=".7" stroke-width="1.5"/>
  <path d="M64 40 128 72" stroke="#63707a" stroke-opacity=".18"/>
  <path d="M62 94 126 126" stroke="#030404" stroke-opacity=".75" stroke-width="4"/>
</svg>
